<mxfile host="app.diagrams.net" modified="2023-11-23T21:13:53.577Z" agent="Mozilla/5.0 (Windows NT 10.0; Win64; x64) AppleWebKit/537.36 (KHTML, like Gecko) Chrome/119.0.0.0 Safari/537.36" version="22.1.3" etag="YOKU_ioe977scEkhWu_n" type="device">
  <diagram id="rtQvyAD-XSXqyeTPA5vH" name="Page-1">
    <mxGraphModel dx="1450" dy="934" grid="1" gridSize="10" guides="1" tooltips="1" connect="1" arrows="1" fold="1" page="0" pageScale="1" pageWidth="850" pageHeight="1100" background="none" math="0" shadow="0">
      <root>
        <mxCell id="0" />
        <mxCell id="1" parent="0" />
        <mxCell id="node0" value="&lt;p style=&quot;margin:0px;margin-top:4px;text-align:center;&quot;&gt;&lt;b&gt;QuackCounter&lt;/b&gt;&lt;/p&gt;&lt;hr size=&quot;1&quot;/&gt;&lt;p style=&quot;margin:0 0 0 4px;line-height:1.6;&quot;&gt;+ getQuacks(): int&lt;br/&gt;+ notifyObservers(): void&lt;br/&gt;+ quack(): void&lt;br/&gt;+ registerObserver(Observer): void&lt;/p&gt;" style="verticalAlign=top;align=left;overflow=fill;fontSize=14;fontFamily=Helvetica;html=1;rounded=1;shadow=0;comic=0;labelBackgroundColor=none;strokeWidth=1;fillColor=#EEEEEE;strokeColor=#FFFFFF;fontColor=#1A1A1A;" parent="1" vertex="1">
          <mxGeometry x="-125" y="79" width="250" height="146" as="geometry" />
        </mxCell>
        <mxCell id="node1" value="&lt;p style=&quot;margin:0px;margin-top:4px;text-align:center;&quot;&gt;&lt;i&gt;&amp;lt;&amp;lt;interface&amp;gt;&amp;gt;&lt;/i&gt;&lt;br/&gt;&lt;b&gt;Quackable&lt;/b&gt;&lt;/p&gt;&lt;hr size=&quot;1&quot;/&gt;&lt;p style=&quot;margin:0 0 0 4px;line-height:1.6;&quot;&gt;+ quack(): void&lt;/p&gt;" style="verticalAlign=top;align=left;overflow=fill;fontSize=14;fontFamily=Helvetica;html=1;rounded=1;shadow=0;comic=0;labelBackgroundColor=none;strokeWidth=1;fillColor=#EEEEEE;strokeColor=#FFFFFF;fontColor=#1A1A1A;" parent="1" vertex="1">
          <mxGeometry x="-66" y="-68" width="133" height="79" as="geometry" />
        </mxCell>
        <mxCell id="edge0" value="" style="html=1;rounded=1;edgeStyle=orthogonalEdgeStyle;dashed=0;startArrow=diamondThinstartSize=12;endArrow=openThin;endSize=12;strokeColor=#FFFFFF;exitX=0.500;exitY=0.000;exitDx=0;exitDy=0;entryX=0.500;entryY=1.001;entryDx=0;entryDy=0;labelBackgroundColor=none;fontColor=default;" parent="1" source="node0" target="node1" edge="1">
          <mxGeometry width="50" height="50" relative="1" as="geometry">
            <Array as="points" />
          </mxGeometry>
        </mxCell>
        <mxCell id="label0" value="1" style="edgeLabel;resizable=0;html=1;align=left;verticalAlign=top;strokeColor=#FFFFFF;labelBackgroundColor=none;fontColor=#1A1A1A;rounded=1;" parent="edge0" vertex="1" connectable="0">
          <mxGeometry x="-11" y="43" as="geometry" />
        </mxCell>
        <mxCell id="label4" value="1" style="edgeLabel;resizable=0;html=1;align=left;verticalAlign=top;strokeColor=#FFFFFF;labelBackgroundColor=none;fontColor=#1A1A1A;rounded=1;" parent="edge0" vertex="1" connectable="0">
          <mxGeometry x="-11" y="11" as="geometry" />
        </mxCell>
        <mxCell id="label5" value="&lt;font color=&quot;#ffffff&quot;&gt;duck&lt;/font&gt;" style="edgeLabel;resizable=0;html=1;align=left;verticalAlign=top;strokeColor=#FFFFFF;labelBackgroundColor=none;fontColor=#1A1A1A;rounded=1;" parent="edge0" vertex="1" connectable="0">
          <mxGeometry x="-5" y="28" as="geometry" />
        </mxCell>
        <mxCell id="edge1" value="" style="html=1;rounded=1;edgeStyle=orthogonalEdgeStyle;dashed=1;startArrow=none;endArrow=block;endSize=12;strokeColor=#FFFFFF;exitX=0.560;exitY=0.000;exitDx=0;exitDy=0;entryX=0.613;entryY=1.001;entryDx=0;entryDy=0;labelBackgroundColor=none;fontColor=default;" parent="1" source="node0" target="node1" edge="1">
          <mxGeometry width="50" height="50" relative="1" as="geometry">
            <Array as="points" />
          </mxGeometry>
        </mxCell>
      </root>
    </mxGraphModel>
  </diagram>
</mxfile>
